<svg id="Layer_1" data-name="Layer 1" xmlns="http://www.w3.org/2000/svg" xmlns:xlink="http://www.w3.org/1999/xlink" viewBox="0 0 2682.58 1961.92"><defs><style>.cls-1{fill:url(#linear-gradient);}.cls-2{fill:url(#linear-gradient-2);}.cls-3{fill:url(#linear-gradient-3);}.cls-4{fill:url(#linear-gradient-4);}.cls-5{fill:#231f20;}.cls-6{font-size:31.18px;font-family:Futura-Medium, Futura;font-weight:500;letter-spacing:0.01em;}.cls-6,.cls-9{fill:#070707;}.cls-7{fill:#057171;}.cls-8{fill:url(#linear-gradient-5);}</style><linearGradient id="linear-gradient" x1="-1062.88" y1="962" x2="580.98" y2="962" gradientTransform="matrix(1, 0, 0, -1, 0, 1922)" gradientUnits="userSpaceOnUse"><stop offset="0" stop-color="#f3a730"/><stop offset="0.1" stop-color="#eda634"/><stop offset="0.23" stop-color="#dba236"/><stop offset="0.38" stop-color="#be9a3d"/><stop offset="0.55" stop-color="#96924a"/><stop offset="0.73" stop-color="#638759"/><stop offset="0.92" stop-color="#24796a"/><stop offset="1" stop-color="#097271"/></linearGradient><linearGradient id="linear-gradient-2" x1="256.9" y1="1522.75" x2="1619.7" y2="1522.75" xlink:href="#linear-gradient"/><linearGradient id="linear-gradient-3" x1="294.24" y1="465" x2="641.84" y2="465" xlink:href="#linear-gradient"/><linearGradient id="linear-gradient-4" x1="402.78" y1="459.83" x2="1619.7" y2="459.83" xlink:href="#linear-gradient"/><linearGradient id="linear-gradient-5" x1="788.35" y1="840.72" x2="925.44" y2="915.54" gradientUnits="userSpaceOnUse"><stop offset="0" stop-color="#f3a731"/><stop offset="0.1" stop-color="#eda633"/><stop offset="0.23" stop-color="#dba237"/><stop offset="0.38" stop-color="#be9b3f"/><stop offset="0.55" stop-color="#96924a"/><stop offset="0.73" stop-color="#628658"/><stop offset="0.92" stop-color="#237869"/><stop offset="1" stop-color="#057171"/></linearGradient></defs><g id="Layer_1-2" data-name="Layer 1"><path class="cls-1" d="M14.77,0C62.2,123.76,109,506.6,153,631.67c5.06,15.85,12.85,30.64,19.51,45.87,19,46,53.78,86.47,99.21,107.84,47.78,23.42,101.37,30.23,153.67,36.09,47.38,4.6,95.08,6.57,142.47,9.25,15.26,32,17.36,70.36,5.42,103.72-58.34,5.65-116.86,13-173.39,28.9-50.26,14.09-100.55,37.43-133.76,79.08-16.51,21.76-29.82,46.26-36.85,72.75-9.51,24.21-10.6,50.5-15.94,75.75C193.2,1348.23,167.92,1763.44,142.7,1920h-519c79.72-88.24,432.6-751.71,520.19-873,17-19.72,35.63-38.14,56.55-53.71,57-42.34,126.37-62.13,193.91-80.45,19.07-6.51,40.25-9.38,56.91-21.33,4.77-3.23.77-9.11-3.61-10.35-17.94-7.36-37.52-9.25-56.58-12-99.82-12.26-203.48-15.31-297-56.08-11.48-4.73-23.39-8.64-33.84-15.52C-61.24,730.1-812.06,116.15-1062.88,0Z" transform="translate(1062.88 7.56)"/><path class="cls-2" d="M1619.7,258.67V337q-280.62,125.26-562.48,247.71C954.16,629.3,850.78,673.14,746.3,714.25c-52.94,19.7-106.18,38.66-158.44,60.17-13.39,6-27.61,10.83-39.62,19.4-1.28.88-2.58,1.84-2.58,1.84s7,7.1,7.46,10.4c-68.6-4.42-139.75-5.45-204.13-32.51-31.27-13.34-58.44-37.45-72.06-69-23.47-52.52-20-111.5-19.64-167.66C259.47,444.17,315.05,92.76,315.46,0H490.1C470,78.42,390.93,418.58,367.46,498.21c-13.12,48-29.59,95.8-32.35,145.86-2.54,29.29,1.21,61,18.85,85.37,12.54,17.5,31.41,29.42,51.18,37.3,42.4,16.3,88.28,19.61,133.15,23-3-3.7-8.56-7.34-12.4-10.61-28.54-3.49-57.63-7.17-84.22-18.83-18.32-7.69-35.07-21.51-42.13-40.54-7.47-21.27-5-44.66,1.16-65.92,7.55-30.41,21.73-58.53,35.1-86.68Q520,414.25,602.59,260.33c.29-.55,153-267.34,153.32-267.89H984c-83.93,99.48-352.8,458-433.47,563.84a931.26,931.26,0,0,0-65.27,80.89c-14.8,22.07-29.86,45.05-35.54,71.43-3,13.94-.76,29.94,9.77,40.28,14.17,14,34.33,19.37,53.34,23-3.55-2.61-7.85-4.39-10.43-8.17-6.9-8.22-3.51-20.13,1.47-28.43,11.43-19.11,27.94-34.45,44.33-49.24,45.9-41,97.18-75.09,146-112.37,137.07-103.66,272.45-209.52,408.12-315Z" transform="translate(1062.88 7.56)"/><path class="cls-3" d="M464.85,1954.36c-18.56-142.4-143-577.68-164.87-719.65-7.34-59-13-123.7,18.55-177.09,22.28-35.77,60.33-58,99.47-71.06,46.27-15.69,95-22.35,143.52-26.92-2.29,6.22-6.83,11.59-11,16.66C495.72,983.6,437,992,392.41,1027.62c-32,25.38-43.43,68.68-38.73,107.89,3.36,43.91,18.36,85.74,33.46,126.8,51.1,131.19,99.36,263.45,148,395.56.46,1.14,106.29,295.32,106.7,296.49Z" transform="translate(1062.88 7.56)"/><path class="cls-4" d="M1619.7,1661.4H1280.87c-220.18-166.06-439.59-333.27-664-493.6-28.71-21.17-56.64-43.53-82.36-68.27-16.06-16.68-33.23-34.23-39.77-57.06-3.67-12.26,1.73-25.88,12.12-33,7.76-5.35,13.08-7.73,21.45-12.55-28.06,7.08-61.14,16.93-74.73,45.16-7.87,16.21-5,35.34.75,51.77,17.84,46.84,51.54,85.11,83.87,122.55,136.77,146.44,408,570,541.8,719.15H856.64c-83.16-135.77-302.71-546.49-388.1-680.89-20.91-34-40.83-68.84-54.46-106.44-9.24-26.33-15.61-55.4-7.76-82.91,6.71-24.15,26.65-42,48.5-52.77,26.5-13,55.7-20.09,84.82-23.76-.43,6.75,4.54,11.66,9.49,15.42,13.52,10.23,28.7,18,43.9,25.32,39.21,18.62,79.45,35,119.91,50.63,151.93,57.31,752.29,319.87,903.14,387.27,1.18.53,2.41,1,3.62,1.52Z" transform="translate(1062.88 7.56)"/></g><polygon class="cls-5" points="2004.27 929.58 1997.96 929.58 1987.7 939.91 1998.15 953.07 2004.47 953.07 1994.01 939.54 2004.27 929.58"/><rect class="cls-5" x="1981.85" y="929.58" width="5.85" height="5.31"/><text class="cls-6" transform="translate(2006.93 952.74) scale(1.05 1)">izuna</text><path class="cls-7" d="M840.66,942.71a5.94,5.94,0,0,1,6.08-5.79h36.75c4.79,0,16.89,0,27.67,10.3s39.41,38.48,39.41,38.48H897.86c-3.77,0-15.07-1-31.49-16.64C849.32,952.82,840.66,946,840.66,942.71Z" transform="translate(1062.88 7.56)"/><path class="cls-8" d="M939.75,886.11c1.61-3.14-.79-7-4.86-7H893.44c-7.27,0-17.53-1.38-27.6,8.73S835,917.55,835,917.55s-2.53,2.36-2.53-.73V831.54s.06-13.1-7.71-20.51S782,771.84,782,771.84V874.36c0-3.13-1.66,11,9.83,22s24,22.26,27.38,25.49,6,6,19.37,6h44.23c8.65,0,18-4,23.29-9S937,891.55,939.75,886.11Z" transform="translate(1062.88 7.56)"/><path class="cls-9" d="M594.57,953.19v8.12H591.4v-20H595a17.11,17.11,0,0,1,4,.35,5.36,5.36,0,0,1,2.4,1.32,5.57,5.57,0,0,1,1.8,4.25,5.35,5.35,0,0,1-1.93,4.35,7.87,7.87,0,0,1-5.2,1.61Zm0-2.8h1.18q4.37,0,4.36-3.2t-4.5-3.09h-1Z" transform="translate(1062.88 7.56)"/><path class="cls-9" d="M617.57,956.45h-9l-2.34,4.86h-3.41l10.39-21.26,10,21.26h-3.47Zm-1.29-2.83-3.12-6.8-3.26,6.8Z" transform="translate(1062.88 7.56)"/><path class="cls-9" d="M636,950.9h8.67v.66a13.14,13.14,0,0,1-.55,4,8.5,8.5,0,0,1-1.84,3,9.74,9.74,0,0,1-7.44,3.14,10.44,10.44,0,0,1-7.54-3,10.09,10.09,0,0,1,0-14.68,10.87,10.87,0,0,1,7.78-3.05,11.12,11.12,0,0,1,4.6,1,13.42,13.42,0,0,1,4,3.11l-2.26,2.06A7.91,7.91,0,0,0,629.64,946a7.11,7.11,0,0,0-2.26,5.39,6.94,6.94,0,0,0,2.51,5.5,7.71,7.71,0,0,0,5.1,2,6.51,6.51,0,0,0,4.2-1.5,5.28,5.28,0,0,0,2.09-3.63H636Z" transform="translate(1062.88 7.56)"/><path class="cls-9" d="M660.62,944.15H652.2V949h8.17v2.84H652.2v6.68h8.42v2.84H649v-20h11.59Z" transform="translate(1062.88 7.56)"/><path class="cls-9" d="M689.55,942.39V946a9,9,0,0,0-5.68-2.19,7.4,7.4,0,0,0-5.45,2.22,7.27,7.27,0,0,0-2.23,5.39,7.12,7.12,0,0,0,2.23,5.31,7.54,7.54,0,0,0,5.46,2.16,6.94,6.94,0,0,0,2.85-.52,8,8,0,0,0,1.35-.7,14.79,14.79,0,0,0,1.47-1.06v3.64a11.92,11.92,0,0,1-5.71,1.46,10.78,10.78,0,0,1-7.68-3A9.7,9.7,0,0,1,673,951.4a10,10,0,0,1,2.65-6.81,10.78,10.78,0,0,1,8.45-3.67A11.05,11.05,0,0,1,689.55,942.39Z" transform="translate(1062.88 7.56)"/><path class="cls-9" d="M697.05,941.31v12.05a6.38,6.38,0,0,0,.89,3.77,4.88,4.88,0,0,0,7.44,0,6.36,6.36,0,0,0,.88-3.77V941.31h3.17v12.88a7,7,0,0,1-2.07,5.2,8.28,8.28,0,0,1-11.41,0,7,7,0,0,1-2.06-5.2V941.31Z" transform="translate(1062.88 7.56)"/><path class="cls-9" d="M721.9,952.79l6.5,8.52h-3.87l-6-8.19H718v8.19h-3.17v-20h3.71q4.17,0,6,1.49a5.38,5.38,0,0,1,2,4.38,5.5,5.5,0,0,1-1.27,3.65A5.81,5.81,0,0,1,721.9,952.79Zm-3.94-2.3h1q4.5,0,4.5-3.27,0-3.08-4.38-3.07H718Z" transform="translate(1062.88 7.56)"/><path class="cls-9" d="M739,952.79l6.5,8.52h-3.87l-6-8.19h-.57v8.19h-3.17v-20h3.71q4.17,0,6,1.49a5.38,5.38,0,0,1,2,4.38,5.5,5.5,0,0,1-1.27,3.65A5.81,5.81,0,0,1,739,952.79Zm-3.94-2.3h1q4.5,0,4.5-3.27,0-3.08-4.38-3.07h-1.13Z" transform="translate(1062.88 7.56)"/><path class="cls-9" d="M760.58,944.15h-8.42V949h8.17v2.84h-8.17v6.68h8.42v2.84H749v-20h11.59Z" transform="translate(1062.88 7.56)"/><path class="cls-9" d="M765.07,961.31V940l15.31,15.26v-13.9h3.17v21.22l-15.31-15.22v14Z" transform="translate(1062.88 7.56)"/><path class="cls-9" d="M794.71,944.15v17.16h-3.17V944.15h-4.83v-2.84h12.81v2.84Z" transform="translate(1062.88 7.56)"/><path class="cls-9" d="M805.85,941.31v17.16H812v2.84h-9.34v-20Z" transform="translate(1062.88 7.56)"/><path class="cls-9" d="M817.82,952.67,811,941.31h3.64l4.8,8,4.82-8h3.64L821,952.67v8.64h-3.17Z" transform="translate(1062.88 7.56)"/><path class="cls-9" d="M593.83,969v7c0,.38,0,.77,0,1.16a3,3,0,0,0,.27,1.07,1.83,1.83,0,0,0,.71.78,2.63,2.63,0,0,0,1.37.3,2.56,2.56,0,0,0,1.36-.3,1.9,1.9,0,0,0,.71-.78,3,3,0,0,0,.28-1.07c0-.39,0-.78,0-1.16v-7h3.51v7.49a5.83,5.83,0,0,1-1.45,4.4,7.83,7.83,0,0,1-8.91,0,5.83,5.83,0,0,1-1.46-4.4V969Z" transform="translate(1062.88 7.56)"/><path class="cls-9" d="M605.18,981.87V969h3.52l6.51,7.9V969h3.51v12.92h-3.51L608.7,974v7.9Z" transform="translate(1062.88 7.56)"/><path class="cls-9" d="M621.78,969H627a6.46,6.46,0,0,1,2.6.53,7.27,7.27,0,0,1,2.12,1.41,6.57,6.57,0,0,1,1.43,2.06,5.94,5.94,0,0,1,.52,2.46,6.07,6.07,0,0,1-.51,2.44,6.53,6.53,0,0,1-1.42,2.07,7.23,7.23,0,0,1-2.12,1.42,6.53,6.53,0,0,1-2.62.53h-5.21ZM625.3,979h.81a4.66,4.66,0,0,0,1.64-.27A3.45,3.45,0,0,0,629,978a3.31,3.31,0,0,0,.76-1.14,4,4,0,0,0,.26-1.45,3.84,3.84,0,0,0-.27-1.44,3.28,3.28,0,0,0-.77-1.15,3.45,3.45,0,0,0-1.21-.75,4.58,4.58,0,0,0-1.62-.28h-.81Z" transform="translate(1062.88 7.56)"/><path class="cls-9" d="M643.84,971.79h-4.19V974h4v2.85h-4V979h4.19v2.85h-7.71V969h7.71Z" transform="translate(1062.88 7.56)"/><path class="cls-9" d="M657.87,981.87h-4.39l-3.36-5v5h-3.53V969h5.49a5.71,5.71,0,0,1,2,.32,3.86,3.86,0,0,1,1.39.86,3.68,3.68,0,0,1,.83,1.27,4.34,4.34,0,0,1,.28,1.54,3.66,3.66,0,0,1-.75,2.39,3.76,3.76,0,0,1-2.2,1.24Zm-7.75-7.15h.67a2.65,2.65,0,0,0,1.6-.41,1.54,1.54,0,0,0,0-2.36,2.65,2.65,0,0,0-1.6-.41h-.67Z" transform="translate(1062.88 7.56)"/><path class="cls-9" d="M675.66,973.27a3.84,3.84,0,0,0-3-1.42,3.92,3.92,0,0,0-1.47.27,3.41,3.41,0,0,0-1.16.75,3.27,3.27,0,0,0-.76,1.12,3.69,3.69,0,0,0,0,2.82,3.29,3.29,0,0,0,.77,1.13,3.65,3.65,0,0,0,1.16.76,3.77,3.77,0,0,0,1.44.27,4.16,4.16,0,0,0,3-1.37v4l-.36.12a12.21,12.21,0,0,1-1.51.4,8.27,8.27,0,0,1-1.39.13,7.26,7.26,0,0,1-2.69-.51,7,7,0,0,1-2.26-1.42,7.06,7.06,0,0,1-1.58-2.18,6.71,6.71,0,0,1,0-5.48,6.86,6.86,0,0,1,1.57-2.14,7,7,0,0,1,2.27-1.4,7.38,7.38,0,0,1,2.72-.51,8.41,8.41,0,0,1,1.59.16,10.26,10.26,0,0,1,1.65.51Z" transform="translate(1062.88 7.56)"/><path class="cls-9" d="M677.69,975.41a6.5,6.5,0,0,1,.56-2.68,6.66,6.66,0,0,1,1.54-2.17,7.1,7.1,0,0,1,2.37-1.45,9.06,9.06,0,0,1,6.05,0,7.14,7.14,0,0,1,2.38,1.45,6.57,6.57,0,0,1,1.56,2.17,6.69,6.69,0,0,1,0,5.36,6.57,6.57,0,0,1-1.56,2.17,7.31,7.31,0,0,1-2.38,1.45,9.06,9.06,0,0,1-6.05,0,7.26,7.26,0,0,1-2.37-1.45,6.66,6.66,0,0,1-1.54-2.17A6.5,6.5,0,0,1,677.69,975.41Zm3.69,0a3.35,3.35,0,0,0,.3,1.42,3.6,3.6,0,0,0,.83,1.13,3.85,3.85,0,0,0,1.21.75,4.26,4.26,0,0,0,2.93,0,4,4,0,0,0,1.23-.75,3.45,3.45,0,0,0,.83-1.13,3.41,3.41,0,0,0,0-2.84,3.45,3.45,0,0,0-.83-1.13,4,4,0,0,0-2.69-1,4,4,0,0,0-1.47.26,3.85,3.85,0,0,0-1.21.75,3.6,3.6,0,0,0-.83,1.13A3.35,3.35,0,0,0,681.38,975.41Z" transform="translate(1062.88 7.56)"/><path class="cls-9" d="M695.15,981.87V969h3.53l6.51,7.9V969h3.5v12.92h-3.5l-6.51-7.9v7.9Z" transform="translate(1062.88 7.56)"/><path class="cls-9" d="M719.2,972.26a4.29,4.29,0,0,0-1.16-.66,3.22,3.22,0,0,0-1.11-.22,1.87,1.87,0,0,0-1.11.31,1,1,0,0,0-.44.81.79.79,0,0,0,.22.56,1.79,1.79,0,0,0,.57.39,4.53,4.53,0,0,0,.79.28l.87.26a5.5,5.5,0,0,1,2.53,1.46,3.52,3.52,0,0,1,.8,2.39,4.55,4.55,0,0,1-.35,1.8,3.79,3.79,0,0,1-1,1.38,4.83,4.83,0,0,1-1.65.89,7.3,7.3,0,0,1-2.22.32,8.45,8.45,0,0,1-4.77-1.46l1.51-2.71a6.27,6.27,0,0,0,1.56,1,3.89,3.89,0,0,0,1.53.32A1.89,1.89,0,0,0,717,979a1.13,1.13,0,0,0,.42-.86,1.06,1.06,0,0,0-.11-.51,1.09,1.09,0,0,0-.36-.39,2.61,2.61,0,0,0-.65-.33c-.27-.11-.6-.22-1-.35s-.9-.28-1.34-.45a4.18,4.18,0,0,1-1.17-.66,3.06,3.06,0,0,1-.83-1,3.47,3.47,0,0,1-.31-1.58,4.42,4.42,0,0,1,.33-1.74,3.94,3.94,0,0,1,.93-1.34,4.24,4.24,0,0,1,1.48-.86,5.7,5.7,0,0,1,1.95-.31,9.58,9.58,0,0,1,4.21,1Z" transform="translate(1062.88 7.56)"/><path class="cls-9" d="M728.82,971.79v10.08h-3.53V971.79H722.4V969h9.31v2.84Z" transform="translate(1062.88 7.56)"/><path class="cls-9" d="M744.77,981.87h-4.39l-3.36-5v5h-3.53V969H739a5.71,5.71,0,0,1,2,.32,3.86,3.86,0,0,1,1.39.86,3.68,3.68,0,0,1,.83,1.27,4.34,4.34,0,0,1,.28,1.54,3.66,3.66,0,0,1-.75,2.39,3.76,3.76,0,0,1-2.2,1.24ZM737,974.72h.66a2.66,2.66,0,0,0,1.61-.41,1.54,1.54,0,0,0,0-2.36,2.66,2.66,0,0,0-1.61-.41H737Z" transform="translate(1062.88 7.56)"/><path class="cls-9" d="M749.86,969v7c0,.38,0,.77,0,1.16a3,3,0,0,0,.27,1.07,1.83,1.83,0,0,0,.71.78,2.63,2.63,0,0,0,1.37.3,2.56,2.56,0,0,0,1.36-.3,1.9,1.9,0,0,0,.71-.78,2.82,2.82,0,0,0,.28-1.07c0-.39,0-.78,0-1.16v-7h3.51v7.49a5.83,5.83,0,0,1-1.45,4.4,7.83,7.83,0,0,1-8.91,0,5.83,5.83,0,0,1-1.46-4.4V969Z" transform="translate(1062.88 7.56)"/><path class="cls-9" d="M771,973.27a3.81,3.81,0,0,0-3-1.42,3.87,3.87,0,0,0-1.46.27,3.41,3.41,0,0,0-1.16.75,3.29,3.29,0,0,0-.77,1.12,3.57,3.57,0,0,0,.77,4,3.69,3.69,0,0,0,1.17.76,3.75,3.75,0,0,0,1.43.27,4.14,4.14,0,0,0,3-1.37v4l-.36.12a11.77,11.77,0,0,1-1.51.4,8.15,8.15,0,0,1-1.38.13,7.23,7.23,0,0,1-2.69-.51,7,7,0,0,1-2.27-1.42,7.2,7.2,0,0,1-1.57-2.18,6.24,6.24,0,0,1-.59-2.74,6.35,6.35,0,0,1,.58-2.74,6.7,6.7,0,0,1,1.57-2.14,7,7,0,0,1,2.27-1.4,7.34,7.34,0,0,1,2.72-.51,8.41,8.41,0,0,1,1.59.16,9.86,9.86,0,0,1,1.64.51Z" transform="translate(1062.88 7.56)"/><path class="cls-9" d="M778.56,971.79v10.08H775V971.79h-2.9V969h9.32v2.84Z" transform="translate(1062.88 7.56)"/><path class="cls-9" d="M786.76,969v12.92h-3.52V969Z" transform="translate(1062.88 7.56)"/><path class="cls-9" d="M789.21,975.41a6.34,6.34,0,0,1,.56-2.68,6.66,6.66,0,0,1,1.54-2.17,7.1,7.1,0,0,1,2.37-1.45,9.06,9.06,0,0,1,6.05,0,7.14,7.14,0,0,1,2.38,1.45,6.57,6.57,0,0,1,1.56,2.17,6.69,6.69,0,0,1,0,5.36,6.57,6.57,0,0,1-1.56,2.17,7.31,7.31,0,0,1-2.38,1.45,9.06,9.06,0,0,1-6.05,0,7.26,7.26,0,0,1-2.37-1.45,6.66,6.66,0,0,1-1.54-2.17A6.34,6.34,0,0,1,789.21,975.41Zm3.69,0a3.35,3.35,0,0,0,.3,1.42A3.6,3.6,0,0,0,794,978a3.85,3.85,0,0,0,1.21.75,4.26,4.26,0,0,0,2.93,0,4,4,0,0,0,1.23-.75,3.45,3.45,0,0,0,.83-1.13,3.41,3.41,0,0,0,0-2.84,3.45,3.45,0,0,0-.83-1.13,4,4,0,0,0-2.69-1,4,4,0,0,0-1.47.26,3.85,3.85,0,0,0-1.21.75,3.6,3.6,0,0,0-.83,1.13A3.35,3.35,0,0,0,792.9,975.41Z" transform="translate(1062.88 7.56)"/><path class="cls-9" d="M806.67,981.87V969h3.53l6.51,7.9V969h3.5v12.92h-3.5L810.2,974v7.9Z" transform="translate(1062.88 7.56)"/></svg>