<svg xmlns="http://www.w3.org/2000/svg" xmlns:xlink="http://www.w3.org/1999/xlink" width="375" height="812" viewBox="0 0 375 812">
  <defs>
    <linearGradient id="linear-gradient" y1="0.501" x2="1" y2="0.501" gradientUnits="objectBoundingBox">
      <stop offset="0" stop-color="#f3941d"/>
      <stop offset="0.1" stop-color="#ed9320"/>
      <stop offset="0.23" stop-color="#d78f23"/>
      <stop offset="0.38" stop-color="#b5872a"/>
      <stop offset="0.55" stop-color="#897f37"/>
      <stop offset="0.73" stop-color="#577446"/>
      <stop offset="0.92" stop-color="#226757"/>
      <stop offset="1" stop-color="#10605e"/>
    </linearGradient>
    <linearGradient id="linear-gradient-2" x1="0" y1="1.881" x2="1" y2="1.881" xlink:href="#linear-gradient"/>
    <linearGradient id="linear-gradient-3" x1="0" y1="-0.497" x2="1" y2="-0.497" xlink:href="#linear-gradient"/>
    <linearGradient id="linear-gradient-4" x1="0" y1="-0.559" x2="1" y2="-0.559" xlink:href="#linear-gradient"/>
    <linearGradient id="linear-gradient-5" x1="0.041" y1="0.442" x2="0.906" y2="0.921" gradientUnits="objectBoundingBox">
      <stop offset="0" stop-color="#f3931e"/>
      <stop offset="0.098" stop-color="#ec911f"/>
      <stop offset="0.233" stop-color="#db8d24"/>
      <stop offset="0.389" stop-color="#be862c"/>
      <stop offset="0.561" stop-color="#957d38"/>
      <stop offset="0.745" stop-color="#617246"/>
      <stop offset="0.938" stop-color="#236357"/>
      <stop offset="1" stop-color="#0e5f5e"/>
    </linearGradient>
    <clipPath id="clip-iPhone_X_XS_11_Pro_1">
      <rect width="375" height="812"/>
    </clipPath>
  </defs>
  <g id="iPhone_X_XS_11_Pro_1" data-name="iPhone X, XS, 11 Pro – 1" clip-path="url(#clip-iPhone_X_XS_11_Pro_1)">
    <rect width="375" height="812" fill="#fff"/>
    <g id="Layer_1" data-name="Layer 1" transform="translate(588.778 -12.808)">
      <path id="Path_1" data-name="Path 1" d="M-594.493,0c20.615,54.222,40.943,221.953,60.089,276.749,2.2,6.944,5.585,13.424,8.48,20.1,8.258,20.154,23.375,37.884,43.121,47.247,20.767,10.261,44.06,13.244,66.791,15.812,20.594,2.015,41.326,2.878,61.923,4.053a60.525,60.525,0,0,1,2.356,45.442c-25.357,2.475-50.792,5.7-75.363,12.662-21.845,6.173-43.7,16.4-58.138,34.647-7.176,9.534-12.961,20.268-16.017,31.873-4.133,10.607-4.607,22.125-6.928,33.188-8.762,68.921-19.75,250.833-30.712,319.425H-764.468c34.65-38.66,188.026-329.34,226.1-382.462A155.371,155.371,0,0,1-513.793,435.2c24.774-18.55,54.926-27.22,84.281-35.247,8.289-2.852,17.494-4.11,24.736-9.345,2.073-1.415.335-3.991-1.569-4.535-7.8-3.225-16.308-4.053-24.592-5.257-43.386-5.371-88.441-6.708-129.1-24.57-4.99-2.072-10.167-3.785-14.708-6.8C-627.53,319.873-953.868,50.888-1062.884,0Z" transform="translate(0 -4.274)" fill="url(#linear-gradient)"/>
      <path id="Path_2" data-name="Path 2" d="M849.229,108.156v34.063Q727.264,196.662,604.752,249.883c-44.794,19.363-89.728,38.418-135.139,56.286-23.01,8.562-46.15,16.8-68.865,26.152-5.82,2.608-12,4.707-17.22,8.432-.557.382-1.122.8-1.122.8s3.043,3.086,3.243,4.52c-29.816-1.921-60.741-2.369-88.723-14.13-13.592-5.8-25.4-16.277-31.32-29.99-10.2-22.827-8.693-48.463-8.536-72.872.947-40.3,25.1-193.038,25.283-233.355h75.906c-8.745,34.083-43.1,181.933-53.3,216.543-5.7,20.863-12.861,41.639-14.061,63.4-1.1,12.731.526,26.513,8.193,37.105,5.45,7.606,13.652,12.787,22.245,16.212,18.429,7.085,38.37,8.523,57.873,10-1.3-1.608-3.721-3.19-5.39-4.612-12.4-1.517-25.048-3.116-36.605-8.184-7.963-3.342-15.243-9.349-18.311-17.62-3.247-9.245-2.173-19.411.5-28.652,3.282-13.217,9.445-25.44,15.256-37.675q36.614-66.461,72.494-133.361c.126-.239,66.507-116.2,66.641-116.436h99.144C536.456,35.679,419.6,191.5,384.532,237.509a405.562,405.562,0,0,0-28.369,35.158c-6.432,9.592-12.978,19.581-15.447,31.046-1.3,6.059-.33,13.013,4.246,17.507,6.159,6.085,14.921,8.419,23.184,10-1.543-1.134-3.412-1.908-4.533-3.551-3-3.573-1.526-8.749.639-12.357,4.968-8.306,12.144-14.973,19.268-21.4,19.95-17.82,42.238-32.637,63.458-48.841C506.553,200.013,565.395,154,624.363,108.156Z" transform="translate(-743.481 0)" fill="url(#linear-gradient-2)"/>
      <path id="Path_3" data-name="Path 3" d="M368.4,1391.989c-8.067-61.893-62.172-251.085-71.661-312.791-3.191-25.644-5.65-53.765,8.062-76.971,9.684-15.547,26.222-25.209,43.234-30.886,20.111-6.82,41.291-9.714,62.38-11.7-.995,2.7-2.969,5.037-4.781,7.241-23.818,3.173-49.345,6.837-68.721,22.306-13.909,11.031-18.876,29.851-16.833,46.893,1.46,19.085,7.98,37.266,14.543,55.112,22.21,57.021,43.186,114.506,64.327,171.927.2.5,46.2,128.359,46.378,128.869Z" transform="translate(-765.711 -540.133)" fill="url(#linear-gradient-3)"/>
      <path id="Path_4" data-name="Path 4" d="M931.7,1281.129H784.429c-95.7-72.177-191.064-144.853-288.6-214.539a356.436,356.436,0,0,1-35.8-29.673c-6.98-7.25-14.443-14.878-17.286-24.8a13.181,13.181,0,0,1,5.268-14.343c3.373-2.325,5.685-3.36,9.323-5.455-12.2,3.077-26.574,7.359-32.481,19.628-3.421,7.046-2.173,15.36.326,22.5,7.754,20.359,22.4,36.992,36.453,53.265,59.446,63.649,177.323,247.751,235.491,312.574H600.043c-36.145-59.011-131.572-237.528-168.686-295.945-9.088-14.778-17.747-29.921-23.671-46.263-4.016-11.444-6.785-24.079-3.373-36.036,2.916-10.5,11.583-18.255,21.08-22.936,11.518-5.65,24.21-8.732,36.866-10.327-.187,2.934,1.973,5.068,4.125,6.7,5.876,4.446,12.474,7.824,19.081,11.005,17.043,8.093,34.533,15.213,52.118,22.006,66.035,24.909,326.976,139.029,392.542,168.324.513.23,1.047.435,1.573.661Z" transform="translate(-825.951 -556.608)" fill="url(#linear-gradient-4)"/>
    </g>
    <g id="Group_4" data-name="Group 4" transform="translate(-1131.594 -352.411)">
      <g id="Group_2" data-name="Group 2" transform="translate(1424.795 699.128)">
        <path id="Path_5" data-name="Path 5" d="M1708.878,849.309h-1.819l-2.956,2.979,3.013,3.791h1.819l-3.013-3.9Z" transform="translate(-1662.917 -806.036)" fill="#1a1718"/>
        <rect id="Rectangle_1" data-name="Rectangle 1" width="1.684" height="1.53" transform="translate(39.501 43.274)" fill="#1a1718"/>
        <g id="Group_1" data-name="Group 1" transform="translate(47.225 43.263)">
          <path id="Path_6" data-name="Path 6" d="M1725.064,849.908a.6.6,0,0,1,.2-.447.7.7,0,0,1,.954,0,.594.594,0,0,1,.2.452.607.607,0,0,1-.2.456.654.654,0,0,1-.475.188.668.668,0,0,1-.479-.188A.611.611,0,0,1,1725.064,849.908Zm1.193,1.777v4.273h-1.036v-4.273Z" transform="translate(-1725.064 -849.272)" fill="#090a09"/>
          <path id="Path_7" data-name="Path 7" d="M1734.24,860.989h2.667v.93h-4.72l2.906-3.352H1732.8v-.921h4.338Z" transform="translate(-1730.134 -855.233)" fill="#090a09"/>
          <path id="Path_8" data-name="Path 8" d="M1753.368,857.646V860.1q0,1.061.88,1.061t.88-1.061v-2.452h1.036v2.474a2.64,2.64,0,0,1-.133.886,1.494,1.494,0,0,1-.447.6,2.264,2.264,0,0,1-2.667,0,1.521,1.521,0,0,1-.456-.6,2.34,2.34,0,0,1-.129-.886v-2.474Z" transform="translate(-1744.475 -855.233)" fill="#090a09"/>
          <path id="Path_9" data-name="Path 9" d="M1770.562,857.353h1.041v.395a1.739,1.739,0,0,1,1.225-.513,1.587,1.587,0,0,1,1.22.469,1.859,1.859,0,0,1,.378,1.3v2.619h-1.041v-2.386a1.5,1.5,0,0,0-.184-.873.762.762,0,0,0-.654-.246.815.815,0,0,0-.733.324,2.145,2.145,0,0,0-.212,1.119v2.062h-1.041Z" transform="translate(-1757.452 -854.94)" fill="#090a09"/>
          <path id="Path_10" data-name="Path 10" d="M1791.686,857.353h1.04v4.273h-1.04v-.447a2.059,2.059,0,0,1-2.915-.07,2.315,2.315,0,0,1-.6-1.632,2.245,2.245,0,0,1,.6-1.6,1.988,1.988,0,0,1,1.51-.641,1.951,1.951,0,0,1,1.4.614Zm-2.459,2.123a1.442,1.442,0,0,0,.345,1,1.155,1.155,0,0,0,.893.39,1.218,1.218,0,0,0,.93-.377,1.563,1.563,0,0,0,0-1.983,1.2,1.2,0,0,0-.921-.381,1.17,1.17,0,0,0-.894.386A1.383,1.383,0,0,0,1789.226,859.476Z" transform="translate(-1769.984 -854.94)" fill="#090a09"/>
        </g>
        <path id="Path_11" data-name="Path 11" d="M1619.948,865.878a1.711,1.711,0,0,1,1.751-1.668h10.59a10.961,10.961,0,0,1,7.973,2.97c3.107,2.96,11.357,11.087,11.357,11.087H1636.43c-1.086,0-4.342-.288-9.073-4.794C1622.444,868.792,1619.948,866.829,1619.948,865.878Z" transform="translate(-1603.011 -816.643)" fill="#0e5f5e"/>
        <path id="Path_12" data-name="Path 12" d="M1606.659,732.055a1.417,1.417,0,0,0-1.4-2h-11.943c-2.1,0-5.053-.4-7.954,2.516s-8.9,8.546-8.9,8.546-.73.68-.73-.211V716.332s.018-3.777-2.22-5.91-12.32-11.295-12.32-11.295v29.543a8.7,8.7,0,0,0,2.83,6.337c3.311,3.154,6.917,6.416,7.891,7.345s1.723,1.728,5.579,1.728h12.745a10.447,10.447,0,0,0,6.712-2.592C1598.471,740.042,1605.854,733.623,1606.659,732.055Z" transform="translate(-1561.17 -699.128)" fill="url(#linear-gradient-5)"/>
      </g>
      <g id="Group_3" data-name="Group 3" transform="translate(1369.594 747.57)">
        <path id="Path_13" data-name="Path 13" d="M1371.6,872.026v2.34h-.913V868.6h1.034a4.875,4.875,0,0,1,1.148.1,1.557,1.557,0,0,1,.69.381,1.6,1.6,0,0,1,.521,1.224,1.546,1.546,0,0,1-.557,1.254,2.272,2.272,0,0,1-1.5.463Zm0-.806h.341q1.258,0,1.258-.922,0-.892-1.3-.892h-.3Z" transform="translate(-1370.373 -868.212)" fill="#090a09"/>
        <path id="Path_14" data-name="Path 14" d="M1386.364,872.072h-2.589l-.674,1.4h-.984l2.994-6.125,2.887,6.125h-1Zm-.372-.817-.9-1.96-.94,1.96Z" transform="translate(-1378.509 -867.317)" fill="#090a09"/>
        <path id="Path_15" data-name="Path 15" d="M1406.9,871.089h2.5v.191a3.757,3.757,0,0,1-.161,1.15,2.416,2.416,0,0,1-.529.866,2.8,2.8,0,0,1-2.143.9,3.019,3.019,0,0,1-2.174-.873,2.909,2.909,0,0,1,.016-4.232,3.129,3.129,0,0,1,2.241-.877,3.2,3.2,0,0,1,1.324.276,3.794,3.794,0,0,1,1.155.9l-.65.594a2.282,2.282,0,0,0-3.424-.314,2.054,2.054,0,0,0-.65,1.553,2,2,0,0,0,.725,1.586,2.22,2.22,0,0,0,1.469.578,1.878,1.878,0,0,0,1.211-.433,1.521,1.521,0,0,0,.6-1.045H1406.9Z" transform="translate(-1393.721 -867.935)" fill="#090a09"/>
        <path id="Path_16" data-name="Path 16" d="M1431.661,869.421h-2.426v1.385h2.355v.818h-2.355v1.926h2.426v.818h-3.338V868.6h3.338Z" transform="translate(-1411.401 -868.212)" fill="#090a09"/>
        <path id="Path_17" data-name="Path 17" d="M1457.055,868.637v1.03a2.6,2.6,0,0,0-1.638-.631,2.136,2.136,0,0,0-1.571.638,2.1,2.1,0,0,0-.642,1.553,2.05,2.05,0,0,0,.642,1.53,2.176,2.176,0,0,0,1.575.623,2.019,2.019,0,0,0,.819-.149,2.411,2.411,0,0,0,.39-.2,4.648,4.648,0,0,0,.425-.306v1.048a3.419,3.419,0,0,1-1.645.422,3.114,3.114,0,0,1-2.214-.862,2.792,2.792,0,0,1-.913-2.1,2.877,2.877,0,0,1,.764-1.963,3.106,3.106,0,0,1,2.433-1.056A3.2,3.2,0,0,1,1457.055,868.637Z" transform="translate(-1428.457 -867.935)" fill="#090a09"/>
        <path id="Path_18" data-name="Path 18" d="M1474.089,868.6v3.471a1.839,1.839,0,0,0,.255,1.086,1.4,1.4,0,0,0,2.143,0,1.81,1.81,0,0,0,.254-1.086V868.6h.913v3.71a2.023,2.023,0,0,1-.6,1.5,2.385,2.385,0,0,1-3.287,0,2.023,2.023,0,0,1-.6-1.5V868.6Z" transform="translate(-1443.329 -868.212)" fill="#090a09"/>
        <path id="Path_19" data-name="Path 19" d="M1496.131,871.911l1.873,2.456h-1.117l-1.728-2.359h-.164v2.359h-.913V868.6h1.07a2.773,2.773,0,0,1,1.732.429,1.546,1.546,0,0,1,.588,1.261,1.587,1.587,0,0,1-.369,1.053A1.656,1.656,0,0,1,1496.131,871.911Zm-1.136-.661h.29q1.3,0,1.3-.944,0-.884-1.262-.885h-.325Z" transform="translate(-1458.212 -868.212)" fill="#090a09"/>
        <path id="Path_20" data-name="Path 20" d="M1513.231,871.911l1.873,2.456h-1.117l-1.728-2.359h-.165v2.359h-.913V868.6h1.07a2.771,2.771,0,0,1,1.732.429,1.546,1.546,0,0,1,.588,1.261,1.588,1.588,0,0,1-.368,1.053A1.657,1.657,0,0,1,1513.231,871.911Zm-1.136-.661h.29q1.3,0,1.3-.944,0-.884-1.261-.885h-.325Z" transform="translate(-1470.384 -868.212)" fill="#090a09"/>
        <path id="Path_21" data-name="Path 21" d="M1531.619,869.421h-2.425v1.385h2.355v.818h-2.355v1.926h2.425v.818h-3.338V868.6h3.338Z" transform="translate(-1482.556 -868.212)" fill="#090a09"/>
        <path id="Path_22" data-name="Path 22" d="M1544.36,873.4v-6.155l4.412,4.4v-4h.913v6.113l-4.412-4.385V873.4Z" transform="translate(-1494.002 -867.244)" fill="#090a09"/>
        <path id="Path_23" data-name="Path 23" d="M1568.3,869.421v4.945h-.913v-4.945H1566V868.6h3.691v.817Z" transform="translate(-1509.408 -868.212)" fill="#090a09"/>
        <path id="Path_24" data-name="Path 24" d="M1582.886,868.6v4.945h1.778v.818h-2.691V868.6Z" transform="translate(-1520.778 -868.212)" fill="#090a09"/>
        <path id="Path_25" data-name="Path 25" d="M1592.235,871.877l-1.974-3.273h1.05l1.383,2.3,1.387-2.3h1.05l-1.982,3.273v2.49h-.913Z" transform="translate(-1526.677 -868.212)" fill="#090a09"/>
        <path id="Path_26" data-name="Path 26" d="M1370.61,896.243v2.024c0,.109,0,.22.013.333a.876.876,0,0,0,.078.309.521.521,0,0,0,.2.224.75.75,0,0,0,.394.086.735.735,0,0,0,.391-.086.546.546,0,0,0,.2-.224.85.85,0,0,0,.08-.309c.009-.114.013-.225.013-.333v-2.024H1373V898.4a1.691,1.691,0,0,1-.417,1.269,2.261,2.261,0,0,1-2.568,0,1.683,1.683,0,0,1-.42-1.269v-2.157Z" transform="translate(-1369.594 -887.887)" fill="#090a09"/>
        <path id="Path_27" data-name="Path 27" d="M1384.467,899.965v-3.722h1.015l1.876,2.276v-2.276h1.01v3.722h-1.01l-1.876-2.276v2.276Z" transform="translate(-1380.182 -887.887)" fill="#090a09"/>
        <path id="Path_28" data-name="Path 28" d="M1401.066,896.243h1.5a1.85,1.85,0,0,1,.749.153,2.056,2.056,0,0,1,.611.407,1.886,1.886,0,0,1,.412.592,1.746,1.746,0,0,1,0,1.412,1.875,1.875,0,0,1-.409.595,2.01,2.01,0,0,1-.612.41,1.856,1.856,0,0,1-.754.153h-1.5Zm1.016,2.9h.233a1.309,1.309,0,0,0,.471-.079,1.009,1.009,0,0,0,.35-.217.93.93,0,0,0,.218-.328,1.129,1.129,0,0,0,.075-.417,1.094,1.094,0,0,0-.078-.415.949.949,0,0,0-.22-.331,1.017,1.017,0,0,0-.349-.217,1.308,1.308,0,0,0-.467-.079h-.233Z" transform="translate(-1391.998 -887.887)" fill="#090a09"/>
        <path id="Path_29" data-name="Path 29" d="M1417.641,897.063h-1.208v.622h1.14v.819h-1.14v.642h1.208v.82h-2.223v-3.722h2.223Z" transform="translate(-1402.214 -887.887)" fill="#090a09"/>
        <path id="Path_30" data-name="Path 30" d="M1429.134,899.965h-1.265l-.969-1.432v1.432h-1.016v-3.722h1.581a1.625,1.625,0,0,1,.57.091,1.114,1.114,0,0,1,.4.249,1.054,1.054,0,0,1,.238.365,1.222,1.222,0,0,1,.08.444,1.058,1.058,0,0,1-.215.689,1.1,1.1,0,0,1-.635.358Zm-2.234-2.059h.192a.767.767,0,0,0,.461-.119.441.441,0,0,0,0-.681.768.768,0,0,0-.461-.118h-.192Z" transform="translate(-1409.665 -887.887)" fill="#090a09"/>
        <path id="Path_31" data-name="Path 31" d="M1447.56,897.231a1.141,1.141,0,0,0-1.293-.331,1.029,1.029,0,0,0-.334.215.991.991,0,0,0-.22.323,1.021,1.021,0,0,0-.08.4,1.034,1.034,0,0,0,.08.41.993.993,0,0,0,.223.326,1.043,1.043,0,0,0,.334.217,1.076,1.076,0,0,0,.414.079,1.2,1.2,0,0,0,.876-.395v1.145l-.1.034a3.119,3.119,0,0,1-.435.116,2.206,2.206,0,0,1-.4.037,2.1,2.1,0,0,1-.774-.146,2.021,2.021,0,0,1-1.106-1.037,1.923,1.923,0,0,1,0-1.58,1.956,1.956,0,0,1,.451-.617,2.075,2.075,0,0,1,.656-.4,2.132,2.132,0,0,1,.783-.146,2.258,2.258,0,0,1,.459.047,2.884,2.884,0,0,1,.474.146Z" transform="translate(-1422.966 -887.631)" fill="#090a09"/>
        <path id="Path_32" data-name="Path 32" d="M1456.979,897.848a1.864,1.864,0,0,1,.161-.773,1.921,1.921,0,0,1,.445-.624,2.049,2.049,0,0,1,.681-.417,2.6,2.6,0,0,1,1.744,0,2.072,2.072,0,0,1,.687.417,1.9,1.9,0,0,1,.448.624,1.935,1.935,0,0,1,0,1.545,1.9,1.9,0,0,1-.448.624,2.076,2.076,0,0,1-.687.417,2.6,2.6,0,0,1-1.744,0,2.053,2.053,0,0,1-.681-.417,1.92,1.92,0,0,1-.445-.624A1.864,1.864,0,0,1,1456.979,897.848Zm1.063,0a.95.95,0,0,0,.088.41,1.033,1.033,0,0,0,.238.326,1.085,1.085,0,0,0,.35.215,1.206,1.206,0,0,0,.844,0,1.117,1.117,0,0,0,.353-.215,1.019,1.019,0,0,0,.241-.326,1,1,0,0,0,0-.819,1.023,1.023,0,0,0-.241-.326,1.119,1.119,0,0,0-.353-.215,1.206,1.206,0,0,0-.844,0,1.088,1.088,0,0,0-.35.215,1.037,1.037,0,0,0-.238.326A.951.951,0,0,0,1458.042,897.848Z" transform="translate(-1431.8 -887.631)" fill="#090a09"/>
        <path id="Path_33" data-name="Path 33" d="M1474.441,899.965v-3.722h1.016l1.876,2.276v-2.276h1.01v3.722h-1.01l-1.876-2.276v2.276Z" transform="translate(-1444.23 -887.887)" fill="#090a09"/>
        <path id="Path_34" data-name="Path 34" d="M1492.751,896.94a1.267,1.267,0,0,0-.332-.19.922.922,0,0,0-.321-.062.543.543,0,0,0-.322.089.273.273,0,0,0-.124.232.224.224,0,0,0,.062.163.537.537,0,0,0,.163.111,1.43,1.43,0,0,0,.228.082c.085.023.169.048.251.074a1.581,1.581,0,0,1,.728.422,1.008,1.008,0,0,1,.23.689,1.286,1.286,0,0,1-.1.518,1.085,1.085,0,0,1-.3.4,1.389,1.389,0,0,1-.477.257,2.08,2.08,0,0,1-.64.091,2.433,2.433,0,0,1-1.373-.42l.435-.78a1.778,1.778,0,0,0,.451.286,1.13,1.13,0,0,0,.44.094.544.544,0,0,0,.371-.109.326.326,0,0,0,.122-.247.291.291,0,0,0-.135-.259.876.876,0,0,0-.189-.1c-.077-.029-.172-.062-.282-.1q-.2-.059-.386-.131a1.225,1.225,0,0,1-.337-.19.889.889,0,0,1-.238-.3,1.013,1.013,0,0,1-.091-.457,1.271,1.271,0,0,1,.1-.5,1.111,1.111,0,0,1,.27-.385,1.2,1.2,0,0,1,.425-.249,1.678,1.678,0,0,1,.562-.089,2.571,2.571,0,0,1,.606.077,2.765,2.765,0,0,1,.607.224Z" transform="translate(-1455.612 -887.631)" fill="#090a09"/>
        <path id="Path_35" data-name="Path 35" d="M1503.538,897.063v2.9h-1.016v-2.9h-.834v-.819h2.684v.819Z" transform="translate(-1463.626 -887.887)" fill="#090a09"/>
        <path id="Path_36" data-name="Path 36" d="M1516.033,899.965h-1.265l-.969-1.432v1.432h-1.016v-3.722h1.581a1.624,1.624,0,0,1,.57.091,1.114,1.114,0,0,1,.4.249,1.052,1.052,0,0,1,.238.365,1.224,1.224,0,0,1,.08.444,1.057,1.057,0,0,1-.215.689,1.093,1.093,0,0,1-.635.358Zm-2.234-2.059h.192a.767.767,0,0,0,.461-.119.441.441,0,0,0,0-.681.769.769,0,0,0-.461-.118h-.192Z" transform="translate(-1471.525 -887.887)" fill="#090a09"/>
        <path id="Path_37" data-name="Path 37" d="M1526.641,896.243v2.024c0,.109,0,.22.013.333a.876.876,0,0,0,.078.309.523.523,0,0,0,.2.224.75.75,0,0,0,.394.086.734.734,0,0,0,.391-.086.546.546,0,0,0,.2-.224.85.85,0,0,0,.08-.309q.013-.17.013-.333v-2.024h1.01V898.4a1.69,1.69,0,0,1-.417,1.269,2.261,2.261,0,0,1-2.568,0,1.683,1.683,0,0,1-.42-1.269v-2.157Z" transform="translate(-1480.666 -887.887)" fill="#090a09"/>
        <path id="Path_38" data-name="Path 38" d="M1542.877,897.231a1.141,1.141,0,0,0-1.293-.331,1.031,1.031,0,0,0-.334.215.987.987,0,0,0-.22.323,1.019,1.019,0,0,0-.08.4,1.032,1.032,0,0,0,.08.41.994.994,0,0,0,.223.326,1.046,1.046,0,0,0,.334.217,1.077,1.077,0,0,0,.415.079,1.2,1.2,0,0,0,.876-.395v1.145l-.1.034a3.127,3.127,0,0,1-.435.116,2.2,2.2,0,0,1-.4.037,2.1,2.1,0,0,1-.775-.146,2.025,2.025,0,0,1-1.107-1.037,1.925,1.925,0,0,1,0-1.58,1.958,1.958,0,0,1,.451-.617,2.074,2.074,0,0,1,.656-.4,2.13,2.13,0,0,1,.782-.146,2.257,2.257,0,0,1,.459.047,2.892,2.892,0,0,1,.474.146Z" transform="translate(-1490.818 -887.631)" fill="#090a09"/>
        <path id="Path_39" data-name="Path 39" d="M1553.282,897.063v2.9h-1.016v-2.9h-.834v-.819h2.684v.819Z" transform="translate(-1499.037 -887.887)" fill="#090a09"/>
        <path id="Path_40" data-name="Path 40" d="M1563.544,896.243v3.722h-1.016v-3.722Z" transform="translate(-1506.935 -887.887)" fill="#090a09"/>
        <path id="Path_41" data-name="Path 41" d="M1568.5,897.848a1.864,1.864,0,0,1,.161-.773,1.919,1.919,0,0,1,.446-.624,2.047,2.047,0,0,1,.681-.417,2.6,2.6,0,0,1,1.744,0,2.074,2.074,0,0,1,.686.417,1.9,1.9,0,0,1,.448.624,1.935,1.935,0,0,1,0,1.545,1.9,1.9,0,0,1-.448.624,2.078,2.078,0,0,1-.686.417,2.6,2.6,0,0,1-1.744,0,2.051,2.051,0,0,1-.681-.417,1.919,1.919,0,0,1-.446-.624A1.864,1.864,0,0,1,1568.5,897.848Zm1.063,0a.95.95,0,0,0,.088.41,1.037,1.037,0,0,0,.238.326,1.089,1.089,0,0,0,.35.215,1.206,1.206,0,0,0,.845,0,1.115,1.115,0,0,0,.353-.215,1.022,1.022,0,0,0,.241-.326.994.994,0,0,0,0-.819,1.026,1.026,0,0,0-.241-.326,1.118,1.118,0,0,0-.353-.215,1.206,1.206,0,0,0-.845,0,1.092,1.092,0,0,0-.35.215,1.041,1.041,0,0,0-.238.326A.95.95,0,0,0,1569.562,897.848Z" transform="translate(-1511.186 -887.631)" fill="#090a09"/>
        <path id="Path_42" data-name="Path 42" d="M1585.962,899.965v-3.722h1.016l1.876,2.276v-2.276h1.01v3.722h-1.01l-1.876-2.276v2.276Z" transform="translate(-1523.617 -887.887)" fill="#090a09"/>
      </g>
    </g>
  </g>
</svg>
